<svg xmlns="http://www.w3.org/2000/svg" width="549.676" height="406.736" viewBox="0 0 549.676 406.736">
  <defs>
    <style>
      .cls-1 {
        fill: #f2f2f2;
      }

      .cls-2 {
        fill: #d37c59;
      }

      .cls-3 {
        fill: #fed892;
      }

      .cls-4 {
        fill: #fd8369;
      }

      .cls-5 {
        fill: #de8e68;
      }

      .cls-11, .cls-6, .cls-9 {
        fill: none;
      }

      .cls-6 {
        stroke: #5b5b5b;
        stroke-width: 1.62px;
      }

      .cls-11, .cls-6 {
        stroke-linecap: round;
        stroke-linejoin: round;
      }

      .cls-7 {
        fill: #5b5b5b;
      }

      .cls-8 {
        fill: #74d5de;
      }

      .cls-9 {
        stroke: #74d5de;
        stroke-miterlimit: 10;
        stroke-width: 8.09px;
      }

      .cls-10 {
        fill: #fed385;
      }

      .cls-11 {
        stroke: #fd8369;
        stroke-width: 3.24px;
      }
    </style>
  </defs>
  <g id="handshake-colour" transform="translate(-0.03 -0.003)">
    <g id="Vector" transform="translate(0.03 0.003)">
      <path id="Path_381" data-name="Path 381" class="cls-1" d="M370.546,71.325c38.313,37.57,71.811,73.144,109.581,123.714s79.686,116.147,59.817,155.294c-19.848,39-101.584,51.574-160.852,55.153-59.136,3.717-95.938-1.572-129.307-6.282-33.492-4.572-63.818-8.576-105.723-18-42.038-9.431-95.656-24.267-122.922-60.117C-6,285.236-6.978,228.368,18.245,190.373s76.488-57.332,118.942-93.479C179.5,60.752,213,7.464,251.179.751,289.492-5.966,332.366,33.749,370.546,71.325Z" transform="translate(-0.03 -0.003)"/>
      <path id="Path_382" data-name="Path 382" class="cls-2" d="M7.63,224.923c14.516,21.919,70.516,68.517,77.629,75.291S208.217,411.91,217.7,416.925c54.223-3.169,78.517-59.739,78.517-74.08s-57.845-116.455-82.983-120.288c-4.488-.682-56.874,20.969-56.874,20.969L40.752,112C26.782,96.644,7.63,76.42,7.63,76.42V224.952" transform="translate(-4.337 -43.316)"/>
      <rect id="Rectangle_772" data-name="Rectangle 772" class="cls-3" width="28.045" height="117.795" transform="translate(380.231 193.807) rotate(-30)"/>
      <circle id="Ellipse_11" data-name="Ellipse 11" class="cls-4" cx="7.711" cy="7.711" r="7.711" transform="translate(436.365 275.849)"/>
      <path id="Path_383" data-name="Path 383" class="cls-5" d="M507.662,333.82c-2.885,1.707-19.71,10.124-25.32,9.422s-30.852-9.816-38.554-7.013S399.6,355.159,399.6,355.159s-32.953,35.054-33.651,35.76-.043,6.156.962,7.026,12.329,4.289,14.2,3.149,27.2-20.573,31.762-20.573,48.033,31.246,73.929,58.828c5.974-2.6,61.107-35.808,61.107-35.808Z" transform="translate(-146.954 -130.224)"/>
      <path id="Path_384" data-name="Path 384" class="cls-5" d="M290.236,522.737s-2.253,12.719,2.733,19.962,43.788,32.836,49.259,33.642,15.452-6.931,16.578-11.263S352.69,544.8,350.6,542.551s-32.031-23.193-35.254-23.683S295.226,519.679,290.236,522.737Z" transform="translate(-130.692 -206.773)"/>
      <line id="Line_4" data-name="Line 4" class="cls-6" y1="16.249" x2="21.439" transform="translate(160.597 301.204)"/>
      <line id="Line_5" data-name="Line 5" class="cls-6" y1="16.249" x2="21.443" transform="translate(181.416 318.744)"/>
      <line id="Line_6" data-name="Line 6" class="cls-6" y1="12.346" x2="16.297" transform="translate(201.265 349.268)"/>
      <line id="Line_7" data-name="Line 7" class="cls-6" x1="60.998" y1="49.575" transform="translate(260.314 287.302)"/>
      <line id="Line_8" data-name="Line 8" class="cls-6" x1="38.689" y1="31.441" transform="translate(256.904 335.128)"/>
      <line id="Line_9" data-name="Line 9" class="cls-6" x1="31.836" y1="25.87" transform="translate(240.538 347.396)"/>
      <rect id="Rectangle_773" data-name="Rectangle 773" class="cls-7" width="50.706" height="55.393" rx="23.74" transform="matrix(0.76, 0.65, -0.65, 0.76, 69.861, 176.401)"/>
      <rect id="Rectangle_774" data-name="Rectangle 774" class="cls-8" width="28.015" height="33.096" transform="matrix(0.76, 0.65, -0.65, 0.76, 120.173, 148.095)"/>
      <circle id="Ellipse_12" data-name="Ellipse 12" class="cls-9" cx="8.681" cy="8.681" r="8.681" transform="translate(110.445 362.194)"/>
      <circle id="Ellipse_13" data-name="Ellipse 13" class="cls-9" cx="6.307" cy="6.307" r="6.307" transform="translate(386.085 351.65)"/>
      <circle id="Ellipse_14" data-name="Ellipse 14" class="cls-9" cx="6.307" cy="6.307" r="6.307" transform="translate(333.134 151.238)"/>
      <rect id="Rectangle_775" data-name="Rectangle 775" class="cls-10" width="108.81" height="43.19" transform="translate(182.159 45.666)"/>
      <path id="Path_385" data-name="Path 385" class="cls-10" d="M502.919,218.5l8.339-17.531H494.58Z" transform="translate(-230.052 -88.75)"/>
      <line id="Line_10" data-name="Line 10" class="cls-11" x2="79.253" transform="translate(197.639 56.661)"/>
      <line id="Line_11" data-name="Line 11" class="cls-11" x2="79.253" transform="translate(197.639 85.634)"/>
      <line id="Line_12" data-name="Line 12" class="cls-11" x2="79.253" transform="translate(197.639 99.125)"/>
      <path id="Path_386" data-name="Path 386" class="cls-8" d="M869.584,115.61l-7.858,4.735s-90.269,54.6-118.566,71l47.106,81.584,79.318-42.089Z" transform="translate(-319.908 -38.577)"/>
    </g>
  </g>
</svg>
