<svg xmlns="http://www.w3.org/2000/svg" width="57.245" height="57.2" viewBox="0 0 57.245 57.2">
  <defs>
    <style>
      .cls-1 {
        fill: #5a5a5a;
      }

      .cls-2 {
        fill: #ffd86e;
      }

      .cls-3 {
        fill: #ffb509;
      }

      .cls-4 {
        fill: #838383;
      }

      .cls-5 {
        fill: #acacac;
      }

      .cls-6 {
        fill: #9c9c9c;
      }

      .cls-7 {
        fill: #ff5770;
      }

      .cls-8 {
        fill: #80e0dc;
      }

      .cls-9 {
        fill: #ff435f;
      }

      .cls-10 {
        fill: #00a8b0;
      }

      .cls-11 {
        fill: #e7e7e7;
      }
    </style>
  </defs>
  <g id="web_1_" data-name="web (1)" transform="translate(0)">
    <path id="Path_275" data-name="Path 275" class="cls-1" d="M184.07,417.539h15.986v7.237H184.07Zm0,0" transform="translate(-163.49 -370.856)"/>
    <path id="Path_276" data-name="Path 276" class="cls-2" d="M54.212,48.072H2.933A2.933,2.933,0,0,1,0,45.138V3.4A2.933,2.933,0,0,1,2.933.469H54.212A2.933,2.933,0,0,1,57.146,3.4V45.138A2.933,2.933,0,0,1,54.212,48.072Zm0,0" transform="translate(0 -0.417)"/>
    <path id="Path_277" data-name="Path 277" class="cls-3" d="M459.346,3.4V45.137a2.934,2.934,0,0,1-2.934,2.934h-3.584a2.934,2.934,0,0,0,2.934-2.934V3.4A2.934,2.934,0,0,0,452.828.469h3.584A2.934,2.934,0,0,1,459.346,3.4Zm0,0" transform="translate(-402.199 -0.416)"/>
    <path id="Path_278" data-name="Path 278" class="cls-4" d="M57.146,363.012H0v4.134a2.934,2.934,0,0,0,2.934,2.934H54.213a2.934,2.934,0,0,0,2.934-2.934Zm0,0" transform="translate(0 -322.425)"/>
    <path id="Path_279" data-name="Path 279" class="cls-1" d="M459.346,363.008v4.135a2.933,2.933,0,0,1-2.934,2.934h-3.584a2.934,2.934,0,0,0,2.934-2.934v-4.135Zm0,0" transform="translate(-402.199 -322.422)"/>
    <path id="Path_280" data-name="Path 280" class="cls-5" d="M57.718,10.476H.57V3.4A2.933,2.933,0,0,1,3.5.469H54.784A2.933,2.933,0,0,1,57.718,3.4Zm0,0" transform="translate(-0.507 -0.416)"/>
    <path id="Path_281" data-name="Path 281" class="cls-6" d="M459.7,2.933v7.075h-3.649V2.933A2.934,2.934,0,0,0,453.121,0h3.649A2.933,2.933,0,0,1,459.7,2.933Zm0,0" transform="translate(-402.46)"/>
    <path id="Path_282" data-name="Path 282" class="cls-7" d="M37.591,31.747a1.669,1.669,0,1,1-1.669-1.669A1.669,1.669,0,0,1,37.591,31.747Zm0,0" transform="translate(-30.424 -26.715)"/>
    <path id="Path_283" data-name="Path 283" class="cls-2" d="M95.235,31.747a1.669,1.669,0,1,1-1.669-1.669A1.669,1.669,0,0,1,95.235,31.747Zm0,0" transform="translate(-81.624 -26.715)"/>
    <path id="Path_284" data-name="Path 284" class="cls-8" d="M152.876,31.747a1.669,1.669,0,1,1-1.668-1.669A1.669,1.669,0,0,1,152.876,31.747Zm0,0" transform="translate(-132.82 -26.715)"/>
    <path id="Path_285" data-name="Path 285" class="cls-9" d="M41.709,31.751a1.667,1.667,0,0,1-2.819,1.207A1.667,1.667,0,0,0,40,30.083h.039a1.668,1.668,0,0,1,1.667,1.669Zm0,0" transform="translate(-34.543 -26.719)"/>
    <path id="Path_286" data-name="Path 286" class="cls-3" d="M99.343,31.751a1.668,1.668,0,0,1-2.82,1.207,1.667,1.667,0,0,0,1.113-2.874h.038a1.668,1.668,0,0,1,1.669,1.669Zm0,0" transform="translate(-85.732 -26.719)"/>
    <path id="Path_287" data-name="Path 287" class="cls-10" d="M156.988,31.751a1.668,1.668,0,0,1-2.82,1.207,1.667,1.667,0,0,0,1.112-2.874h.039a1.669,1.669,0,0,1,1.669,1.669Zm0,0" transform="translate(-136.932 -26.719)"/>
    <path id="Path_288" data-name="Path 288" class="cls-4" d="M159.515,474.055H133.169a.575.575,0,0,1-.575-.575v-1.864a2.288,2.288,0,0,1,2.288-2.288H157.8a2.288,2.288,0,0,1,2.288,2.288v1.864a.575.575,0,0,1-.575.575Zm0,0" transform="translate(-117.769 -416.855)"/>
    <g id="Group_24" data-name="Group 24" transform="translate(2.984 13.21)">
      <path id="Path_289" data-name="Path 289" class="cls-1" d="M339.655,471.615v1.864a.575.575,0,0,1-.575.575h-2.03v-2.44a2.288,2.288,0,0,0-2.288-2.287h2.605A2.287,2.287,0,0,1,339.655,471.615Zm0,0" transform="translate(-300.317 -430.064)"/>
      <path id="Path_290" data-name="Path 290" class="cls-1" d="M29.845,119.877H27.55a.863.863,0,0,1,0-1.725h2.295a.863.863,0,0,1,0,1.725Zm0,0" transform="translate(-26.688 -118.152)"/>
      <path id="Path_291" data-name="Path 291" class="cls-1" d="M76.749,119.877H74.136a.863.863,0,0,1,0-1.725h2.612a.863.863,0,0,1,0,1.725Zm0,0" transform="translate(-68.065 -118.152)"/>
      <path id="Path_292" data-name="Path 292" class="cls-1" d="M88.847,153.822H82.07a.863.863,0,1,1,0-1.725h6.777a.863.863,0,1,1,0,1.725Zm0,0" transform="translate(-75.111 -148.302)"/>
      <path id="Path_293" data-name="Path 293" class="cls-1" d="M30.871,153.822H27.55a.863.863,0,0,1,0-1.725h3.321a.863.863,0,1,1,0,1.725Zm0,0" transform="translate(-26.688 -148.302)"/>
    </g>
    <path id="Path_294" data-name="Path 294" class="cls-11" d="M262.937,374.27H252.2v2.243a1.684,1.684,0,0,0,1.683,1.684h.04a1.683,1.683,0,0,1,1.683,1.683v6.742a1.963,1.963,0,1,0,3.926,0V379.88a1.683,1.683,0,0,1,1.683-1.683h.04a1.684,1.684,0,0,0,1.683-1.684V374.27Zm0,0" transform="translate(-224.002 -332.424)"/>
    <path id="Path_295" data-name="Path 295" class="cls-7" d="M181.376,262.8h-.068a1.606,1.606,0,0,1-1.605-1.605v-4.97a1.605,1.605,0,0,1,1.605-1.605h.068a1.605,1.605,0,0,1,1.605,1.605v4.97A1.606,1.606,0,0,1,181.376,262.8Zm0,0" transform="translate(-159.611 -226.149)"/>
    <path id="Path_296" data-name="Path 296" class="cls-7" d="M454.646,208.861h-.068a1.605,1.605,0,0,1-1.605-1.605v-4.97a1.606,1.606,0,0,1,1.605-1.605h.068a1.606,1.606,0,0,1,1.605,1.605v4.97A1.605,1.605,0,0,1,454.646,208.861Zm0,0" transform="translate(-402.328 -178.243)"/>
    <path id="Path_297" data-name="Path 297" class="cls-9" d="M189.727,256.219v4.971a1.606,1.606,0,0,1-1.605,1.605h-.068a1.6,1.6,0,0,1-.757-.189,1.608,1.608,0,0,0,.849-1.417v-4.971a1.6,1.6,0,0,0-.849-1.416,1.585,1.585,0,0,1,.757-.19h.068A1.605,1.605,0,0,1,189.727,256.219Zm0,0" transform="translate(-166.356 -226.146)"/>
    <path id="Path_298" data-name="Path 298" class="cls-9" d="M463,202.285v4.97a1.606,1.606,0,0,1-1.605,1.605h-.068a1.6,1.6,0,0,1-.756-.189,1.606,1.606,0,0,0,.848-1.417v-4.97a1.607,1.607,0,0,0-.848-1.417,1.6,1.6,0,0,1,.756-.189h.068A1.606,1.606,0,0,1,463,202.285Zm0,0" transform="translate(-409.076 -178.242)"/>
    <path id="Path_299" data-name="Path 299" class="cls-7" d="M174.887,89.976v12.059a2.375,2.375,0,1,0,4.75,0V98.989a1.947,1.947,0,0,1,3.894,0v15.6h10.738V103.268a1.858,1.858,0,0,1,3.717,0v1.625a2.235,2.235,0,1,0,4.469,0V89.976Zm0,0" transform="translate(-155.334 -79.916)"/>
    <path id="Path_300" data-name="Path 300" class="cls-9" d="M396.176,89.98V104.9a2.235,2.235,0,0,1-3.183,2.023,2.232,2.232,0,0,0,1.286-2.023V89.98Zm0,0" transform="translate(-349.054 -79.92)"/>
    <path id="Path_301" data-name="Path 301" class="cls-8" d="M252.2,309.914h10.738v7.222H252.2Zm0,0" transform="translate(-224.002 -275.264)"/>
  </g>
</svg>
