<svg id="data" xmlns="http://www.w3.org/2000/svg" width="57.089" height="57.025" viewBox="0 0 57.089 57.025">
  <defs>
    <style>
      .cls-1 {
        fill: #5a5a5a;
      }

      .cls-2 {
        fill: #ffd86e;
      }

      .cls-3 {
        fill: #ffb509;
      }

      .cls-4 {
        fill: #838383;
      }

      .cls-5 {
        fill: #acacac;
      }

      .cls-6 {
        fill: #9c9c9c;
      }

      .cls-7 {
        fill: #64dcfc;
      }

      .cls-8 {
        fill: #00d1fc;
      }

      .cls-9 {
        fill: #0396fd;
      }

      .cls-10 {
        fill: #0077f0;
      }

      .cls-11 {
        fill: #e7e7e7;
      }

      .cls-12 {
        fill: #ff5770;
      }

      .cls-13 {
        fill: #80e0dc;
      }

      .cls-14 {
        fill: #ff435f;
      }

      .cls-15 {
        fill: #00a8b0;
      }
    </style>
  </defs>
  <path id="Path_224" data-name="Path 224" class="cls-1" d="M184.176,417.711h15.951v6.6H184.176Zm0,0" transform="translate(-163.64 -371.136)"/>
  <path id="Path_225" data-name="Path 225" class="cls-2" d="M54.1,47.5H2.927A2.927,2.927,0,0,1,0,44.573V2.928A2.927,2.927,0,0,1,2.927,0H54.1a2.927,2.927,0,0,1,2.927,2.927V44.573A2.927,2.927,0,0,1,54.1,47.5Zm0,0" transform="translate(0 0)"/>
  <path id="Path_226" data-name="Path 226" class="cls-3" d="M459.593,2.931V44.576a2.927,2.927,0,0,1-2.927,2.927H453.09a2.927,2.927,0,0,0,2.927-2.927V2.931A2.927,2.927,0,0,0,453.09,0h3.576a2.927,2.927,0,0,1,2.927,2.927Zm0,0" transform="translate(-402.57 -0.003)"/>
  <path id="Path_227" data-name="Path 227" class="cls-4" d="M57.023,362.754H0v4.125a2.927,2.927,0,0,0,2.927,2.927H54.1a2.927,2.927,0,0,0,2.927-2.927Zm0,0" transform="translate(0 -322.306)"/>
  <path id="Path_228" data-name="Path 228" class="cls-1" d="M459.593,362.75v4.126a2.927,2.927,0,0,1-2.927,2.927H453.09a2.927,2.927,0,0,0,2.927-2.927V362.75Zm0,0" transform="translate(-402.57 -322.303)"/>
  <path id="Path_229" data-name="Path 229" class="cls-5" d="M57.595,9.986H.57V2.927A2.927,2.927,0,0,1,3.5,0H54.667a2.927,2.927,0,0,1,2.927,2.927Zm0,0" transform="translate(-0.506)"/>
  <path id="Path_230" data-name="Path 230" class="cls-6" d="M459.655,2.93V9.99h-3.641V2.93A2.927,2.927,0,0,0,453.086,0h3.642A2.927,2.927,0,0,1,459.655,2.93Zm0,0" transform="translate(-402.566 -0.003)"/>
  <path id="Path_231" data-name="Path 231" class="cls-4" d="M159.536,473.845h-26.29a.574.574,0,0,1-.574-.574v-1.859a2.283,2.283,0,0,1,2.283-2.283h22.87a2.283,2.283,0,0,1,2.283,2.283v1.859A.574.574,0,0,1,159.536,473.845Zm0,0" transform="translate(-117.879 -416.82)"/>
  <path id="Path_232" data-name="Path 232" class="cls-1" d="M339.838,471.412v1.86a.574.574,0,0,1-.574.574h-2.025v-2.434a2.283,2.283,0,0,0-2.282-2.283h2.6A2.283,2.283,0,0,1,339.838,471.412Zm0,0" transform="translate(-297.608 -416.821)"/>
  <g id="Group_23" data-name="Group 23" transform="translate(2.986 13.725)">
    <path id="Path_233" data-name="Path 233" class="cls-4" d="M30.31,130.161a.834.834,0,0,1-.591-.245l-2.7-2.7a.836.836,0,0,1,0-1.183l2.7-2.7a.836.836,0,0,1,1.183,1.183l-2.107,2.107,2.107,2.107a.836.836,0,0,1-.591,1.427Zm0,0" transform="translate(-26.775 -123.091)"/>
    <path id="Path_234" data-name="Path 234" class="cls-4" d="M109.671,130.161a.836.836,0,0,1-.591-1.427l2.107-2.107-2.107-2.107a.836.836,0,0,1,1.183-1.183l2.7,2.7a.836.836,0,0,1,0,1.183l-2.7,2.7A.834.834,0,0,1,109.671,130.161Zm0,0" transform="translate(-99.684 -123.091)"/>
    <path id="Path_235" data-name="Path 235" class="cls-4" d="M72.057,130.158a.837.837,0,0,1-.778-1.142l2.12-5.4a.836.836,0,1,1,1.557.612l-2.12,5.4a.836.836,0,0,1-.778.531Zm0,0" transform="translate(-66.265 -123.088)"/>
    <path id="Path_236" data-name="Path 236" class="cls-4" d="M37.779,218.454h-5.8a.836.836,0,1,1,0-1.673h5.8a.836.836,0,1,1,0,1.673Zm0,0" transform="translate(-30.657 -206.334)"/>
    <path id="Path_237" data-name="Path 237" class="cls-4" d="M122.523,218.454H112.328a.836.836,0,1,1,0-1.673h10.194a.836.836,0,1,1,0,1.673Zm0,0" transform="translate(-102.046 -206.334)"/>
    <path id="Path_238" data-name="Path 238" class="cls-4" d="M34.451,251.009h-2.47a.836.836,0,1,1,0-1.673h2.47a.836.836,0,1,1,0,1.673Zm0,0" transform="translate(-30.657 -235.259)"/>
    <path id="Path_239" data-name="Path 239" class="cls-4" d="M177.016,251.009h-1.5a.836.836,0,1,1,0-1.673h1.5a.836.836,0,1,1,0,1.673Zm0,0" transform="translate(-158.185 -235.259)"/>
    <path id="Path_240" data-name="Path 240" class="cls-4" d="M88.607,251.009H81.219a.836.836,0,1,1,0-1.673h7.388a.836.836,0,1,1,0,1.673Zm0,0" transform="translate(-74.406 -235.259)"/>
    <path id="Path_241" data-name="Path 241" class="cls-4" d="M216.3,251.009h-2.818a.836.836,0,1,1,0-1.673H216.3a.836.836,0,1,1,0,1.673Zm0,0" transform="translate(-191.92 -235.259)"/>
    <path id="Path_242" data-name="Path 242" class="cls-4" d="M166.695,147.435h-2.972a.836.836,0,1,1,0-1.673h2.972a.836.836,0,1,1,0,1.673Zm0,0" transform="translate(-147.71 -143.234)"/>
    <path id="Path_243" data-name="Path 243" class="cls-4" d="M238.355,147.435H220.223a.836.836,0,1,1,0-1.673h18.132a.836.836,0,1,1,0,1.673Zm0,0" transform="translate(-197.91 -143.234)"/>
    <path id="Path_244" data-name="Path 244" class="cls-4" d="M299.614,181.4H292.27a.836.836,0,0,1,0-1.673h7.344a.836.836,0,1,1,0,1.673Zm0,0" transform="translate(-261.924 -173.412)"/>
    <path id="Path_245" data-name="Path 245" class="cls-4" d="M247.447,181.4h-2.525a.836.836,0,0,1,0-1.673h2.525a.836.836,0,0,1,0,1.673Zm0,0" transform="translate(-219.855 -173.412)"/>
    <path id="Path_246" data-name="Path 246" class="cls-4" d="M169.9,181.4h-6.186a.836.836,0,0,1,0-1.673H169.9a.836.836,0,0,1,0,1.673Zm0,0" transform="translate(-147.706 -173.412)"/>
    <path id="Path_247" data-name="Path 247" class="cls-4" d="M101.372,283.294h-5.8a.836.836,0,1,1,0-1.673h5.8a.836.836,0,1,1,0,1.673Zm0,0" transform="translate(-87.16 -263.944)"/>
    <path id="Path_248" data-name="Path 248" class="cls-4" d="M36.436,283.294H31.981a.836.836,0,1,1,0-1.673h4.455a.836.836,0,1,1,0,1.673Zm0,0" transform="translate(-30.657 -263.944)"/>
    <path id="Path_249" data-name="Path 249" class="cls-4" d="M181.484,283.294H173.91a.836.836,0,0,1,0-1.673h7.574a.836.836,0,0,1,0,1.673Zm0,0" transform="translate(-156.762 -263.944)"/>
  </g>
  <path id="Path_250" data-name="Path 250" class="cls-7" d="M296.664,263.391H315.3V269.7H296.664Zm0,0" transform="translate(-263.585 -234.022)"/>
  <path id="Path_251" data-name="Path 251" class="cls-7" d="M296.664,350.871H315.3v5.853H296.664Zm0,0" transform="translate(-263.585 -311.748)"/>
  <path id="Path_252" data-name="Path 252" class="cls-8" d="M444.051,263.391h2.2V269.7h-2.2Zm0,0" transform="translate(-394.539 -234.022)"/>
  <path id="Path_253" data-name="Path 253" class="cls-8" d="M444.051,350.871h2.2v5.853h-2.2Zm0,0" transform="translate(-394.539 -311.748)"/>
  <path id="Path_254" data-name="Path 254" class="cls-9" d="M297.919,229.1H276.195a.832.832,0,0,1-.832-.832v-4.183a.832.832,0,0,1,.832-.832h21.724a.832.832,0,0,1,.832.832v4.183A.832.832,0,0,1,297.919,229.1Zm0,0" transform="translate(-244.66 -198.358)"/>
  <path id="Path_255" data-name="Path 255" class="cls-9" d="M297.919,313.218H276.195a.832.832,0,0,1-.832-.832V308.2a.832.832,0,0,1,.832-.832h21.724a.832.832,0,0,1,.832.832v4.183A.832.832,0,0,1,297.919,313.218Zm0,0" transform="translate(-244.66 -273.099)"/>
  <path id="Path_256" data-name="Path 256" class="cls-9" d="M297.919,397.339H276.195a.832.832,0,0,1-.832-.832v-4.183a.832.832,0,0,1,.832-.832h21.724a.832.832,0,0,1,.832.832v4.183A.832.832,0,0,1,297.919,397.339Zm0,0" transform="translate(-244.66 -347.84)"/>
  <path id="Path_257" data-name="Path 257" class="cls-10" d="M463.106,224.082v4.183a.832.832,0,0,1-.832.832h-1.93a.832.832,0,0,0,.832-.832v-4.183a.832.832,0,0,0-.832-.832h1.93A.832.832,0,0,1,463.106,224.082Zm0,0" transform="translate(-409.015 -198.357)"/>
  <path id="Path_258" data-name="Path 258" class="cls-10" d="M463.106,308.2v4.183a.831.831,0,0,1-.832.832h-1.93a.831.831,0,0,0,.832-.832V308.2a.832.832,0,0,0-.832-.832h1.93A.832.832,0,0,1,463.106,308.2Zm0,0" transform="translate(-409.015 -273.095)"/>
  <path id="Path_259" data-name="Path 259" class="cls-10" d="M463.106,392.328v4.183a.832.832,0,0,1-.832.832h-1.93a.832.832,0,0,0,.832-.832v-4.183a.831.831,0,0,0-.832-.832h1.93A.831.831,0,0,1,463.106,392.328Zm0,0" transform="translate(-409.015 -347.844)"/>
  <path id="Path_260" data-name="Path 260" class="cls-11" d="M300.7,243.642h-4.142a.836.836,0,1,1,0-1.673H300.7a.836.836,0,1,1,0,1.673Zm0,0" transform="translate(-262.745 -214.989)"/>
  <path id="Path_261" data-name="Path 261" class="cls-11" d="M404,243.642h-5.847a.836.836,0,1,1,0-1.673H404a.836.836,0,0,1,0,1.673Zm0,0" transform="translate(-353.019 -214.989)"/>
  <path id="Path_262" data-name="Path 262" class="cls-11" d="M361.259,243.642h-1.34a.836.836,0,0,1,0-1.673h1.34a.836.836,0,1,1,0,1.673Zm0,0" transform="translate(-319.044 -214.989)"/>
  <path id="Path_263" data-name="Path 263" class="cls-11" d="M300.7,327.763h-4.142a.836.836,0,1,1,0-1.673H300.7a.836.836,0,1,1,0,1.673Zm0,0" transform="translate(-262.745 -289.73)"/>
  <path id="Path_264" data-name="Path 264" class="cls-11" d="M404,327.763h-5.847a.836.836,0,1,1,0-1.673H404a.836.836,0,0,1,0,1.673Zm0,0" transform="translate(-353.019 -289.73)"/>
  <path id="Path_265" data-name="Path 265" class="cls-11" d="M361.259,327.763h-1.34a.836.836,0,0,1,0-1.673h1.34a.836.836,0,1,1,0,1.673Zm0,0" transform="translate(-319.044 -289.73)"/>
  <path id="Path_266" data-name="Path 266" class="cls-11" d="M300.7,411.884h-4.142a.836.836,0,1,1,0-1.673H300.7a.836.836,0,1,1,0,1.673Zm0,0" transform="translate(-262.745 -364.472)"/>
  <path id="Path_267" data-name="Path 267" class="cls-11" d="M404,411.884h-5.847a.836.836,0,1,1,0-1.673H404a.836.836,0,0,1,0,1.673Zm0,0" transform="translate(-353.019 -364.472)"/>
  <path id="Path_268" data-name="Path 268" class="cls-11" d="M361.259,411.884h-1.34a.836.836,0,0,1,0-1.673h1.34a.836.836,0,1,1,0,1.673Zm0,0" transform="translate(-319.044 -364.472)"/>
  <path id="Path_269" data-name="Path 269" class="cls-12" d="M37.6,31.294a1.665,1.665,0,1,1-1.665-1.665A1.665,1.665,0,0,1,37.6,31.294Zm0,0" transform="translate(-30.452 -26.325)"/>
  <path id="Path_270" data-name="Path 270" class="cls-2" d="M95.279,31.294a1.665,1.665,0,1,1-1.665-1.665A1.665,1.665,0,0,1,95.279,31.294Zm0,0" transform="translate(-81.696 -26.325)"/>
  <path id="Path_271" data-name="Path 271" class="cls-13" d="M152.955,31.294a1.665,1.665,0,1,1-1.665-1.665A1.665,1.665,0,0,1,152.955,31.294Zm0,0" transform="translate(-132.941 -26.325)"/>
  <path id="Path_272" data-name="Path 272" class="cls-14" d="M41.723,31.3a1.664,1.664,0,0,1-2.813,1.2,1.663,1.663,0,0,0,1.11-2.868h.039A1.664,1.664,0,0,1,41.723,31.3Zm0,0" transform="translate(-34.572 -26.329)"/>
  <path id="Path_273" data-name="Path 273" class="cls-3" d="M99.392,31.3a1.664,1.664,0,0,1-2.814,1.2,1.664,1.664,0,0,0,1.111-2.868h.038A1.664,1.664,0,0,1,99.392,31.3Zm0,0" transform="translate(-85.81 -26.329)"/>
  <path id="Path_274" data-name="Path 274" class="cls-15" d="M157.068,31.3a1.665,1.665,0,0,1-2.814,1.2,1.663,1.663,0,0,0,1.11-2.868h.039a1.665,1.665,0,0,1,1.665,1.665Zm0,0" transform="translate(-137.054 -26.329)"/>
</svg>
