<svg id="bookmark" xmlns="http://www.w3.org/2000/svg" width="43.687" height="57.596" viewBox="0 0 43.687 57.596">
  <defs>
    <style>
      .cls-1 {
        fill: #ff5770;
      }

      .cls-2 {
        fill: #ff435f;
      }

      .cls-3 {
        fill: #80e0dc;
      }

      .cls-4 {
        fill: #00a8b0;
      }

      .cls-5 {
        fill: #ffd86e;
      }

      .cls-6 {
        fill: #ffb509;
      }
    </style>
  </defs>
  <path id="Path_370" data-name="Path 370" class="cls-1" d="M40.429,57.6H3.264A3.26,3.26,0,0,1,0,54.335V3.26A3.26,3.26,0,0,1,3.264,0H40.429a3.26,3.26,0,0,1,3.26,3.26V54.335A3.26,3.26,0,0,1,40.429,57.6Zm0,0" transform="translate(-0.003 0)"/>
  <path id="Path_371" data-name="Path 371" class="cls-2" d="M337.8,3.26V54.335a3.26,3.26,0,0,1-3.26,3.26H331.39a3.26,3.26,0,0,0,3.259-3.26V3.26A3.26,3.26,0,0,0,331.39,0h3.148a3.26,3.26,0,0,1,3.26,3.26Zm0,0" transform="translate(-294.112 0)"/>
  <path id="Path_372" data-name="Path 372" class="cls-3" d="M43.687,3.26V7.25H0V3.26A3.261,3.261,0,0,1,3.26,0H40.426a3.26,3.26,0,0,1,3.26,3.26Zm0,0"/>
  <path id="Path_373" data-name="Path 373" class="cls-3" d="M43.687,451.544v-3.989H0v3.989a3.26,3.26,0,0,0,3.26,3.26H40.426a3.26,3.26,0,0,0,3.26-3.26Zm0,0" transform="translate(0 -397.209)"/>
  <path id="Path_374" data-name="Path 374" class="cls-4" d="M337.8,3.26V7.25h-3.149V3.26A3.26,3.26,0,0,0,331.39,0h3.148A3.26,3.26,0,0,1,337.8,3.26Zm0,0" transform="translate(-294.112)"/>
  <path id="Path_375" data-name="Path 375" class="cls-4" d="M334.649,447.555H337.8v3.989a3.26,3.26,0,0,1-3.26,3.26H331.39a3.26,3.26,0,0,0,3.259-3.26Zm0,0" transform="translate(-294.112 -397.209)"/>
  <path id="Path_376" data-name="Path 376" class="cls-5" d="M100.7,157.34a1.411,1.411,0,0,0,.758.364l6.126.89a1.408,1.408,0,0,1,.78,2.4l-4.432,4.32a1.409,1.409,0,0,0-.405,1.246l1.047,6.1a1.408,1.408,0,0,1-2.043,1.484l-5.479-2.88a1.41,1.41,0,0,0-1.31,0l-5.479,2.88a1.408,1.408,0,0,1-2.043-1.484l1.046-6.1a1.409,1.409,0,0,0-.4-1.246L84.427,161a1.408,1.408,0,0,1,.78-2.4l6.126-.89a1.409,1.409,0,0,0,1.06-.77l2.739-5.551a1.408,1.408,0,0,1,2.525,0l.743,1.506" transform="translate(-74.551 -133.657)"/>
  <path id="Path_377" data-name="Path 377" class="cls-5" d="M212.008,170.961l2,4.045a1.415,1.415,0,0,0,.3.406" transform="translate(-188.159 -151.729)"/>
  <path id="Path_378" data-name="Path 378" class="cls-6" d="M239.5,228.332a1.406,1.406,0,0,0-.406,1.246l1.046,6.1a1.407,1.407,0,0,1-2.042,1.484l-.035-.018a1.763,1.763,0,0,0,.01-.658l-1.294-7.546a1.741,1.741,0,0,1,.5-1.54l5.481-5.345a1.756,1.756,0,0,0,.338-.454l.052.008a1.408,1.408,0,0,1,.78,2.4Zm0,0" transform="translate(-210.123 -196.674)"/>
  <path id="Path_379" data-name="Path 379" class="cls-5" d="M258.611,0H248.8V13.589a.923.923,0,0,0,1.432.771L253.2,12.4a.924.924,0,0,1,1.016,0l2.967,1.955a.924.924,0,0,0,1.432-.771Zm0,0" transform="translate(-220.809 0)"/>
  <path id="Path_380" data-name="Path 380" class="cls-6" d="M320.04,0V13.589a.924.924,0,0,1-1.432.771l-.6-.393V0Zm0,0" transform="translate(-282.238 0)"/>
</svg>
