<svg xmlns="http://www.w3.org/2000/svg" width="56.824" height="56.728" viewBox="0 0 56.824 56.728">
  <defs>
    <style>
      .cls-1 {
        fill: #ffd86e;
      }

      .cls-2 {
        fill: #ffb509;
      }

      .cls-3 {
        fill: #acacac;
      }

      .cls-4 {
        fill: #9c9c9c;
      }

      .cls-5 {
        fill: #5a5a5a;
      }

      .cls-6 {
        fill: #838383;
      }

      .cls-7 {
        fill: #ff5770;
      }

      .cls-8 {
        fill: #80e0dc;
      }

      .cls-9 {
        fill: #ff435f;
      }

      .cls-10 {
        fill: #00a8b0;
      }

      .cls-11 {
        fill: #e7e7e7;
      }

      .cls-12 {
        fill: #cecece;
      }

      .cls-13 {
        fill: #0396fd;
      }

      .cls-14 {
        fill: #0077f0;
      }

      .cls-15 {
        fill: #c9f0ff;
      }

      .cls-16 {
        fill: #9ae7fd;
      }
    </style>
  </defs>
  <g id="search" transform="translate(0)">
    <path id="Path_302" data-name="Path 302" class="cls-1" d="M53.814,47.254H2.912A2.912,2.912,0,0,1,0,44.342V2.912A2.912,2.912,0,0,1,2.912,0h50.9a2.912,2.912,0,0,1,2.912,2.912V44.342A2.912,2.912,0,0,1,53.814,47.254Zm0,0" transform="translate(0 0)"/>
    <path id="Path_303" data-name="Path 303" class="cls-2" d="M459.3,2.916V44.345a2.912,2.912,0,0,1-2.912,2.912h-3.558a2.912,2.912,0,0,0,2.913-2.912V2.916A2.912,2.912,0,0,0,452.828,0h3.558A2.912,2.912,0,0,1,459.3,2.916Zm0,0" transform="translate(-402.571 -0.003)"/>
    <path id="Path_304" data-name="Path 304" class="cls-3" d="M57.3,9.934H.57V2.912A2.912,2.912,0,0,1,3.482,0h50.9A2.912,2.912,0,0,1,57.3,2.912Zm0,0" transform="translate(-0.507)"/>
    <path id="Path_305" data-name="Path 305" class="cls-4" d="M459.656,2.915V9.938h-3.622V2.915A2.912,2.912,0,0,0,453.121,0h3.623a2.912,2.912,0,0,1,2.912,2.911Zm0,0" transform="translate(-402.832 -0.003)"/>
    <path id="Path_306" data-name="Path 306" class="cls-5" d="M184.07,410.332h15.868v8.511H184.07Zm0,0" transform="translate(-163.641 -364.791)"/>
    <path id="Path_307" data-name="Path 307" class="cls-6" d="M56.726,362.543H0v4.1a2.912,2.912,0,0,0,2.912,2.912h50.9a2.912,2.912,0,0,0,2.912-2.912Zm0,0" transform="translate(0 -322.306)"/>
    <path id="Path_308" data-name="Path 308" class="cls-5" d="M459.3,362.543v4.1a2.912,2.912,0,0,1-2.912,2.912h-3.558a2.912,2.912,0,0,0,2.913-2.912v-4.1Zm0,0" transform="translate(-402.571 -322.306)"/>
    <path id="Path_309" data-name="Path 309" class="cls-7" d="M37.567,31.269a1.657,1.657,0,1,1-1.657-1.656A1.656,1.656,0,0,1,37.567,31.269Zm0,0" transform="translate(-30.452 -26.327)"/>
    <path id="Path_310" data-name="Path 310" class="cls-1" d="M95.211,31.269a1.656,1.656,0,1,1-1.657-1.656A1.656,1.656,0,0,1,95.211,31.269Zm0,0" transform="translate(-81.699 -26.327)"/>
    <path id="Path_311" data-name="Path 311" class="cls-8" d="M152.852,31.269a1.656,1.656,0,1,1-1.656-1.656A1.656,1.656,0,0,1,152.852,31.269Zm0,0" transform="translate(-132.943 -26.327)"/>
    <path id="Path_312" data-name="Path 312" class="cls-9" d="M41.689,31.27a1.655,1.655,0,0,1-2.8,1.2,1.655,1.655,0,0,0,1.1-2.853h.039a1.656,1.656,0,0,1,1.655,1.657Zm0,0" transform="translate(-34.575 -26.327)"/>
    <path id="Path_313" data-name="Path 313" class="cls-2" d="M99.323,31.27a1.656,1.656,0,0,1-2.8,1.2,1.655,1.655,0,0,0,1.105-2.853h.038a1.656,1.656,0,0,1,1.657,1.657Zm0,0" transform="translate(-85.811 -26.327)"/>
    <path id="Path_314" data-name="Path 314" class="cls-10" d="M156.968,31.27a1.656,1.656,0,0,1-2.8,1.2,1.655,1.655,0,0,0,1.1-2.853h.039a1.657,1.657,0,0,1,1.657,1.657Zm0,0" transform="translate(-137.058 -26.327)"/>
    <path id="Path_315" data-name="Path 315" class="cls-6" d="M159.317,473.551H133.164a.571.571,0,0,1-.571-.571v-1.85a2.272,2.272,0,0,1,2.271-2.271h22.752a2.271,2.271,0,0,1,2.271,2.271v1.85a.57.57,0,0,1-.571.571Zm0,0" transform="translate(-117.878 -416.823)"/>
    <path id="Path_316" data-name="Path 316" class="cls-11" d="M112.318,140.08H73.374a.914.914,0,0,1-.913-.913v-8.738a.914.914,0,0,1,.913-.913h38.944a.914.914,0,0,1,.913.913v8.738A.914.914,0,0,1,112.318,140.08Zm0,0" transform="translate(-64.419 -115.141)"/>
    <path id="Path_317" data-name="Path 317" class="cls-12" d="M414.093,140.08H411.91V129.516h2.183a.914.914,0,0,1,.913.913v8.738A.914.914,0,0,1,414.093,140.08Zm0,0" transform="translate(-366.194 -115.141)"/>
    <path id="Path_318" data-name="Path 318" class="cls-5" d="M100.152,158.033a.833.833,0,0,1-.832-.832v-3.778a.832.832,0,1,1,1.665,0V157.2A.832.832,0,0,1,100.152,158.033Zm0,0" transform="translate(-88.297 -135.655)"/>
    <path id="Path_319" data-name="Path 319" class="cls-11" d="M294.874,307.418a3.276,3.276,0,0,1-4.615.4l-12.869-10.795a3.276,3.276,0,1,1,4.211-5.02L294.469,302.8A3.276,3.276,0,0,1,294.874,307.418Zm0,0" transform="translate(-245.563 -258.918)"/>
    <path id="Path_320" data-name="Path 320" class="cls-12" d="M295.732,307.421a3.215,3.215,0,0,1-.357.363,3.271,3.271,0,0,0-1.064-3.34l-12.868-10.794a3.274,3.274,0,0,0-4.259.041,3.276,3.276,0,0,1,5.274-1.68l12.868,10.794A3.275,3.275,0,0,1,295.732,307.421Zm0,0" transform="translate(-246.421 -258.922)"/>
    <path id="Path_321" data-name="Path 321" class="cls-13" d="M157.233,178.865a12.317,12.317,0,1,1-12.317-12.318A12.317,12.317,0,0,1,157.233,178.865Zm0,0" transform="translate(-117.883 -148.063)"/>
    <path id="Path_322" data-name="Path 322" class="cls-14" d="M219.009,179.877A12.325,12.325,0,0,1,202.087,191.3a12.319,12.319,0,0,0,6.373-23.619,12.318,12.318,0,0,1,10.55,12.191Zm0,0" transform="translate(-179.658 -149.075)"/>
    <path id="Path_323" data-name="Path 323" class="cls-15" d="M185.614,211.3a8.268,8.268,0,1,1-8.268-8.268A8.268,8.268,0,0,1,185.614,211.3Zm0,0" transform="translate(-150.313 -180.498)"/>
    <path id="Path_324" data-name="Path 324" class="cls-16" d="M221.96,212.3a8.27,8.27,0,0,1-12,7.38,8.269,8.269,0,0,0,5.173-15.523A8.271,8.271,0,0,1,221.96,212.3Zm0,0" transform="translate(-186.659 -181.501)"/>
    <g id="Group_25" data-name="Group 25" transform="translate(23.913 26.809)">
      <path id="Path_325" data-name="Path 325" class="cls-13" d="M216.292,249.626a.832.832,0,0,1-.656-1.345l1.882-2.408a.833.833,0,0,1,1.312,1.025l-1.882,2.408A.832.832,0,0,1,216.292,249.626Zm0,0" transform="translate(-215.46 -245.109)"/>
      <path id="Path_326" data-name="Path 326" class="cls-13" d="M222.944,249.538a.832.832,0,0,1-.656-1.345l4.941-6.321a.832.832,0,1,1,1.311,1.025l-4.941,6.321a.832.832,0,0,1-.656.32Zm0,0" transform="translate(-221.374 -241.552)"/>
    </g>
  </g>
</svg>
