<svg xmlns="http://www.w3.org/2000/svg" width="57.919" height="57.63" viewBox="0 0 57.919 57.63">
  <defs>
    <style>
      .cls-1 {
        fill: #dd3352;
      }

      .cls-2 {
        fill: #fc74af;
      }

      .cls-3 {
        fill: #3e5268;
      }

      .cls-4 {
        fill: #4cbfd4;
      }

      .cls-5 {
        fill: #96efff;
      }

      .cls-6 {
        fill: #27394c;
      }

      .cls-7 {
        fill: #c99061;
      }

      .cls-8 {
        fill: #a86340;
      }

      .cls-9 {
        fill: #965d36;
      }

      .cls-10 {
        fill: #172635;
      }
    </style>
  </defs>
  <g id="search_1_" data-name="search (1)" transform="translate(0 -1.225)">
    <path id="Path_354" data-name="Path 354" class="cls-1" d="M332.893,329.222h0a5.26,5.26,0,0,1-.671.821l-.592.593a5.22,5.22,0,0,1-7.644-.284l-11.307-13.115,2.752-2.8,3.334-3.394.018.016L331.938,322.4A5.223,5.223,0,0,1,332.893,329.222Z" transform="translate(-275.831 -273.31)"/>
    <path id="Path_355" data-name="Path 355" class="cls-2" d="M348.5,329.341h0a5.223,5.223,0,0,1-6.822-.955l-11.307-13.116,2.752-2.8,1.268-1.291,13.154,11.339A5.223,5.223,0,0,1,348.5,329.341Z" transform="translate(-291.439 -273.429)"/>
    <circle id="Ellipse_10" data-name="Ellipse 10" class="cls-3" cx="23.452" cy="23.452" r="23.452" transform="translate(0 1.225)"/>
    <path id="Path_356" data-name="Path 356" class="cls-4" d="M87.854,71.944A17.138,17.138,0,1,1,68.663,54.929a17.356,17.356,0,0,1,2.054-.121A17.137,17.137,0,0,1,87.854,71.944Z" transform="translate(-47.264 -47.268)"/>
    <path id="Path_357" data-name="Path 357" class="cls-5" d="M83.747,72.855A17.139,17.139,0,0,1,68.663,89.871a17.139,17.139,0,0,1,0-34.032A17.14,17.14,0,0,1,83.747,72.855Z" transform="translate(-47.264 -48.178)"/>
    <path id="Path_358" data-name="Path 358" class="cls-6" d="M64.1,83.348A18.022,18.022,0,1,1,82.123,65.327,18.042,18.042,0,0,1,64.1,83.348Zm0-34.276A16.254,16.254,0,1,0,80.356,65.327,16.272,16.272,0,0,0,64.1,49.073Z" transform="translate(-40.65 -40.65)"/>
    <g id="Group_28" data-name="Group 28" transform="translate(11.383 10.43)">
      <path id="Path_359" data-name="Path 359" class="cls-3" d="M123.375,93.472l.721-1.156a2.1,2.1,0,0,0,.327-1.1v-.009a2.287,2.287,0,0,0-.41-1.309,2.3,2.3,0,0,0-.725-3.877,2.3,2.3,0,0,0-2.224-2.874,2.264,2.264,0,0,0-.517.06,2.3,2.3,0,0,0-3.357-2.019,2.3,2.3,0,0,0-3.98-1.076,2.3,2.3,0,0,0-3.98,1.076,2.3,2.3,0,0,0-3.357,2.019,2.271,2.271,0,0,0-.517-.06,2.3,2.3,0,0,0-2.224,2.874,2.3,2.3,0,0,0-.725,3.877,2.286,2.286,0,0,0-.41,1.309v.009a2.093,2.093,0,0,0,.327,1.1l.721,1.156" transform="translate(-101.036 -79.336)"/>
      <path id="Path_360" data-name="Path 360" class="cls-6" d="M113.249,81.193a2.3,2.3,0,0,0-3.357,2.019,2.271,2.271,0,0,0-.517-.06,2.3,2.3,0,0,0-2.224,2.874,2.3,2.3,0,0,0-.725,3.877,2.286,2.286,0,0,0-.41,1.309v.009a2.094,2.094,0,0,0,.327,1.095l.721,1.157h-4.02l-.72-1.157A2.1,2.1,0,0,1,102,91.221v-.009a2.287,2.287,0,0,1,.41-1.309,2.3,2.3,0,0,1,.725-3.877,2.3,2.3,0,0,1,2.224-2.874,2.264,2.264,0,0,1,.517.06,2.3,2.3,0,0,1,3.357-2.019,2.3,2.3,0,0,1,3.782-1.274A2.306,2.306,0,0,0,113.249,81.193Z" transform="translate(-101.036 -79.336)"/>
      <path id="Path_361" data-name="Path 361" class="cls-7" d="M120.713,201.047a2.859,2.859,0,0,1-2.628,2.851c-.077.006-.155.01-.233.01a2.829,2.829,0,0,1-.584-.06H100.039a2.83,2.83,0,0,1-.584.06h0a2.86,2.86,0,0,1-.267-5.707,2.633,2.633,0,0,1,.269-.013,2.9,2.9,0,0,1,.354.021H117.5a2.906,2.906,0,0,1,.354-.021,2.861,2.861,0,0,1,2.861,2.86Z" transform="translate(-96.595 -184.181)"/>
      <path id="Path_362" data-name="Path 362" class="cls-8" d="M137.753,198.23v3.623a8,8,0,0,1-.265,2.044c-.077.006-.155.01-.233.01a2.829,2.829,0,0,1-.584-.06H119.442a2.83,2.83,0,0,1-.584.06h0a8.013,8.013,0,0,1-.267-2.054V198.2a2.633,2.633,0,0,1,.269-.013,2.9,2.9,0,0,1,.354.021H136.9a2.906,2.906,0,0,1,.354-.021A2.835,2.835,0,0,1,137.753,198.23Z" transform="translate(-115.998 -184.181)"/>
      <path id="Path_363" data-name="Path 363" class="cls-8" d="M271.493,214.294a.551.551,0,0,1-.505-.331c-.23-.529-.925-.36-1-.339a.551.551,0,1,1-.3-1.061,1.9,1.9,0,0,1,2.311.96.551.551,0,0,1-.5.771Z" transform="translate(-248.934 -196.792)"/>
      <path id="Path_364" data-name="Path 364" class="cls-8" d="M108.2,214.265a.551.551,0,0,1-.5-.771,1.83,1.83,0,0,1,2.209-.985.551.551,0,1,1-.228,1.078c-.281-.059-.78-.093-.972.347A.55.55,0,0,1,108.2,214.265Z" transform="translate(-106.348 -196.763)"/>
      <path id="Path_365" data-name="Path 365" class="cls-8" d="M143.284,161.666v5.826a8.729,8.729,0,1,1-17.458,0v-5.825a2.3,2.3,0,0,0,3.946-1.948h.029a2.294,2.294,0,0,0,1.892-1,2.3,2.3,0,0,0,2.862-.635,2.295,2.295,0,0,0,2.862.635,2.293,2.293,0,0,0,1.892,1h.029a2.3,2.3,0,0,0,3.946,1.948Z" transform="translate(-122.381 -148.808)"/>
      <path id="Path_366" data-name="Path 366" class="cls-7" d="M168.1,161.666v5.826a8.731,8.731,0,0,1-7.072,8.571,8.731,8.731,0,0,1-7.071-8.571v-5.773a2.3,2.3,0,0,0,.631-2h.029a2.294,2.294,0,0,0,1.892-1,2.295,2.295,0,0,0,2.862-.635,2.295,2.295,0,0,0,2.862.635,2.293,2.293,0,0,0,1.892,1h.029a2.3,2.3,0,0,0,3.946,1.948Z" transform="translate(-147.201 -148.808)"/>
      <path id="Path_367" data-name="Path 367" class="cls-9" d="M177.787,250.828a3.923,3.923,0,0,1-2.792-1.157.551.551,0,1,1,.779-.779,2.848,2.848,0,0,0,4.027,0,.551.551,0,1,1,.779.779A3.922,3.922,0,0,1,177.787,250.828Z" transform="translate(-165.613 -228.769)"/>
      <g id="Group_27" data-name="Group 27" transform="translate(7.82 14.81)">
        <g id="Group_26" data-name="Group 26">
          <path id="Path_368" data-name="Path 368" class="cls-10" d="M163.5,208.253a.551.551,0,0,1-.551-.551v-2.146a.551.551,0,0,1,1.1,0V207.7A.551.551,0,0,1,163.5,208.253Z" transform="translate(-162.954 -205.006)"/>
          <path id="Path_369" data-name="Path 369" class="cls-10" d="M228.047,208.253a.551.551,0,0,1-.551-.551v-2.146a.551.551,0,1,1,1.1,0V207.7A.551.551,0,0,1,228.047,208.253Z" transform="translate(-219.89 -205.006)"/>
        </g>
      </g>
    </g>
  </g>
</svg>
